<?xml version="1.0" standalone="no"?>
<!DOCTYPE svg PUBLIC "-//W3C//DTD SVG 20010904//EN"
 "http://www.w3.org/TR/2001/REC-SVG-20010904/DTD/svg10.dtd">
<svg version="1.0" xmlns="http://www.w3.org/2000/svg"
 width="2020.000000pt" height="874.000000pt" viewBox="0 0 2020.000000 874.000000"
 preserveAspectRatio="xMidYMid meet">

<g transform="translate(0.000000,874.000000) scale(0.100000,-0.100000)"
fill="#000000" stroke="none">
<path d="M3594 7519 c-3 -6 -8 -210 -11 -452 -4 -433 -4 -443 16 -474 19 -31
24 -33 73 -32 52 1 52 1 24 13 l-29 13 34 6 c19 3 270 4 557 3 550 -3 544 -3
528 39 -4 12 -10 13 -23 6 -10 -5 -62 -12 -116 -16 l-99 -7 7 45 c7 45 7 45
-29 57 -25 8 -36 18 -36 31 0 25 -12 24 -28 -2 -10 -16 -16 -18 -27 -9 -9 7
-15 8 -20 0 -3 -5 -24 -10 -46 -10 -32 0 -39 3 -39 20 0 21 -1 22 -100 25 -38
1 -66 -4 -89 -18 -50 -27 -148 -29 -167 -3 -11 16 -17 17 -26 8 -7 -7 -20 -12
-30 -12 -10 0 -18 -4 -18 -10 0 -5 -16 -10 -35 -10 -29 0 -36 -4 -41 -25 -3
-14 -4 -37 -2 -50 l5 -25 -109 0 c-93 0 -110 2 -115 17 -4 9 1 161 10 338 10
176 17 366 17 423 0 95 1 102 20 102 11 0 20 5 20 10 0 14 -67 13 -76 -1z
m294 -833 c80 -29 258 -40 429 -27 190 13 193 13 193 2 0 -45 -536 -61 -642
-20 -27 11 -42 34 -32 50 7 11 4 12 52 -5z"/>
<path d="M3803 7513 c15 -2 39 -2 55 0 15 2 2 4 -28 4 -30 0 -43 -2 -27 -4z"/>
<path d="M4540 7500 c36 -4 97 -8 136 -9 l71 -1 6 -142 c4 -79 7 -182 7 -230
0 -50 4 -88 10 -88 10 0 13 439 3 466 -4 11 -32 14 -152 12 -119 -1 -134 -2
-81 -8z"/>
<path d="M4053 7463 c32 -2 81 -2 110 0 29 2 3 3 -58 3 -60 0 -84 -1 -52 -3z"/>
<path d="M3967 7103 c-10 -9 -9 -43 2 -43 13 0 23 32 13 42 -5 5 -11 5 -15 1z"/>
<path d="M4255 7091 c-3 -5 -1 -12 5 -16 5 -3 10 -13 10 -22 0 -12 -7 -14 -35
-9 -19 4 -51 4 -70 0 -34 -6 -35 -7 -35 -54 0 -33 5 -50 15 -54 12 -4 13 -2 3
14 -19 30 1 74 35 78 33 4 77 -22 77 -45 0 -31 11 -5 18 44 7 46 9 48 40 48
17 0 34 5 37 12 5 15 -90 19 -100 4z"/>
<path d="M4130 7079 c0 -5 5 -7 10 -4 6 3 10 8 10 11 0 2 -4 4 -10 4 -5 0 -10
-5 -10 -11z"/>
<path d="M4342 7030 c0 -19 2 -27 5 -17 2 9 2 25 0 35 -3 9 -5 1 -5 -18z"/>
<path d="M5900 7014 c-180 -14 -411 -41 -419 -49 -7 -8 38 -6 145 5 226 23
562 40 776 40 145 0 228 4 228 10 0 15 -519 10 -730 -6z"/>
<path d="M6489 6887 c-52 -35 -164 -114 -249 -177 -312 -228 -488 -349 -605
-417 -226 -131 -291 -165 -359 -188 -71 -24 -90 -26 -270 -26 -177 -1 -197 1
-235 20 -68 35 -94 101 -39 101 24 0 122 52 133 70 12 20 -2 22 -40 5 -21 -8
-40 -13 -43 -11 -2 3 -11 -1 -19 -9 -18 -19 -43 -19 -43 -2 0 7 21 38 46 68
52 61 51 60 154 148 41 36 82 71 90 79 48 47 -96 -53 -169 -117 -87 -77 -142
-121 -151 -121 -4 0 -10 11 -13 25 -10 57 150 242 371 427 40 34 70 63 67 66
-7 7 -138 -95 -239 -187 -49 -44 -98 -83 -108 -87 -10 -3 -18 -12 -18 -21 0
-26 -90 -132 -107 -126 -10 4 -13 14 -9 34 6 31 -7 45 -44 51 -14 1 -26 11
-28 21 -3 15 5 17 67 17 38 0 73 5 76 10 7 11 -690 14 -795 3 -46 -4 -64 -10
-67 -23 -2 -9 -19 -20 -36 -26 -28 -8 -32 -13 -32 -45 -1 -20 -7 -45 -15 -54
-12 -14 -14 -43 -12 -129 3 -133 14 -178 47 -200 46 -30 27 -86 -28 -86 -25 0
-28 -3 -25 -27 3 -24 8 -29 37 -31 31 -3 33 -2 22 12 -11 13 -11 17 0 21 8 2
209 6 448 8 418 4 434 4 438 -14 7 -25 27 -24 51 2 19 20 23 20 208 9 103 -6
191 -13 194 -15 4 -2 26 -5 51 -6 56 -1 241 -26 293 -38 22 -6 44 -7 49 -4 5
3 64 9 131 14 174 12 257 36 431 124 229 115 725 409 712 422 -7 6 -77 -32
-302 -165 -341 -202 -485 -278 -584 -311 -89 -29 -299 -54 -391 -46 -140 12
-325 43 -384 64 -94 33 -92 38 25 50 89 9 164 35 279 99 156 86 288 170 460
293 102 72 190 133 197 136 17 7 236 -24 377 -53 66 -14 133 -24 150 -22 28 3
26 5 -24 20 -105 31 -328 68 -415 68 -24 0 -46 4 -49 9 -4 5 98 86 225 180
235 174 288 222 118 108z m-1906 -427 c5 -4 -22 -11 -60 -15 -37 -4 -71 -12
-75 -18 -11 -17 2 -35 22 -30 14 4 21 -2 26 -21 8 -34 27 -28 34 10 8 43 41
40 54 -6 6 -19 18 -42 28 -52 10 -10 18 -28 19 -40 0 -13 3 -17 6 -10 6 15 33
16 33 2 0 -6 -7 -13 -15 -16 -17 -7 -21 -25 -4 -21 20 4 22 -23 2 -30 -10 -4
-24 -13 -31 -20 -7 -7 -20 -13 -28 -13 -8 0 -14 -6 -14 -14 0 -25 -26 -25 -53
0 l-26 24 -3 -32 c-5 -50 -26 -46 -40 9 l-13 48 -5 -50 c-5 -47 -7 -50 -35
-51 -16 -1 -42 1 -58 3 -25 5 -27 8 -22 42 l6 36 -34 -37 c-39 -43 -57 -48
-57 -15 l0 22 -19 -24 c-11 -14 -23 -21 -30 -17 -7 4 -19 2 -27 -5 -22 -18
-36 1 -49 68 l-12 58 -7 -49 c-4 -26 -16 -63 -26 -81 -14 -24 -16 -35 -7 -38
23 -8 0 -17 -60 -23 -34 -4 -74 -3 -90 1 l-28 8 29 12 30 13 -35 7 c-19 4 -42
17 -52 28 -13 15 -20 18 -24 10 -7 -18 -21 -16 -41 4 -34 33 -17 253 18 253 6
0 10 -10 11 -22 0 -15 2 -18 6 -8 11 31 35 50 49 39 8 -7 14 -7 19 1 10 16 35
12 35 -7 0 -15 4 -14 19 6 20 26 51 24 51 -4 0 -9 5 -13 10 -10 6 4 17 2 24
-4 11 -9 15 -6 20 15 4 15 3 31 -1 35 -5 5 -62 10 -127 11 -85 2 -121 7 -124
16 -3 10 55 12 278 12 155 -1 285 2 289 5 8 9 204 -4 214 -15z m125 -349 c27
-28 85 -51 126 -51 10 0 33 -9 50 -19 17 -10 65 -29 106 -42 65 -21 71 -24 43
-27 -18 -2 -83 4 -145 12 -62 9 -144 16 -183 16 -59 0 -72 3 -83 20 -7 11 -21
20 -32 20 -13 0 -20 7 -20 20 0 14 7 20 24 20 15 0 33 11 48 29 13 17 26 30
30 30 3 1 20 -12 36 -28z m-373 -30 c15 -6 11 -9 -20 -14 -53 -9 -119 -9 -142
0 -15 6 -13 9 12 14 42 9 126 9 150 0z m109 -60 c8 -13 -15 -19 -111 -27 -84
-7 -220 3 -208 14 15 16 310 27 319 13z m-469 -11 c22 -6 12 -8 -40 -8 -49 0
-62 2 -45 8 31 10 46 10 85 0z"/>
<path d="M4099 6436 c-8 -8 2 -76 11 -76 4 0 13 14 20 30 15 35 30 39 31 8 0
-13 4 -32 8 -43 8 -19 9 -18 21 8 10 20 18 26 32 21 14 -4 18 0 18 20 0 23 -4
26 -32 26 -18 0 -49 3 -68 6 -19 3 -37 3 -41 0z"/>
<path d="M4270 6431 c0 -5 6 -14 14 -20 7 -6 16 -30 19 -52 5 -38 21 -69 30
-58 3 2 7 34 10 72 l6 67 -39 0 c-22 0 -40 -4 -40 -9z"/>
<path d="M4387 6433 c-2 -5 -1 -32 1 -62 5 -66 22 -49 22 22 0 41 -11 62 -23
40z"/>
<path d="M3977 6147 c-3 -7 -3 -25 0 -40 4 -20 11 -27 29 -27 22 0 22 1 8 28
-7 15 -14 33 -14 40 0 16 -16 16 -23 -1z"/>
<path d="M4774 6805 c0 -71 1 -99 3 -62 2 37 2 96 0 130 -2 34 -3 4 -3 -68z"/>
<path d="M7313 6884 c-44 -22 -65 -73 -74 -177 -4 -49 -9 -90 -11 -91 -1 -2
-22 -13 -46 -25 -74 -38 -119 -85 -132 -142 -33 -135 40 -261 140 -245 33 5
38 3 44 -17 3 -12 6 -461 6 -998 0 -537 5 -1103 11 -1258 l11 -282 -37 -41
c-86 -95 -119 -246 -65 -302 13 -15 48 -33 76 -42 l52 -15 6 -72 c9 -115 15
-227 26 -452 16 -335 61 -660 103 -745 30 -61 96 -104 195 -126 95 -22 235
-24 280 -5 69 29 82 118 43 306 -42 207 -104 742 -127 1093 l-7 102 34 12 c69
24 267 128 354 185 302 200 599 530 785 873 142 263 245 571 286 860 23 158
23 433 0 565 -85 488 -379 814 -836 926 -82 20 -121 23 -290 24 -162 0 -218
-4 -332 -24 l-137 -24 -46 51 c-53 59 -118 88 -217 97 -47 4 -71 2 -95 -11z
m932 -489 c54 -9 110 -29 171 -59 330 -164 439 -590 298 -1161 -138 -561 -484
-1077 -873 -1305 -30 -17 -57 -28 -62 -23 -8 9 -24 264 -40 668 -6 154 -12
631 -13 1060 l-1 780 69 17 c150 38 321 46 451 23z"/>
<path d="M3610 6520 c0 -6 7 -10 15 -10 8 0 15 2 15 4 0 2 -7 6 -15 10 -8 3
-15 1 -15 -4z"/>
<path d="M10120 6415 c-340 -69 -557 -350 -624 -811 -39 -263 -45 -538 -21
-959 20 -361 20 -372 -7 -381 -73 -23 -128 -111 -128 -207 0 -32 5 -67 10 -78
16 -28 63 -49 114 -49 58 0 62 -8 70 -135 8 -118 66 -693 101 -1013 14 -124
41 -317 60 -428 19 -111 43 -270 55 -354 21 -160 25 -173 62 -206 85 -78 312
-121 398 -75 63 33 67 56 37 206 -64 318 -186 1218 -232 1720 -14 154 -28 292
-31 308 -4 17 -1 29 8 32 7 3 172 30 367 60 271 41 358 58 373 72 37 33 51 76
55 168 5 100 -11 148 -58 172 -58 30 -260 9 -652 -68 -95 -19 -120 -21 -126
-10 -21 33 -46 403 -45 666 1 297 18 455 68 628 54 182 156 326 273 383 62 31
114 30 222 -5 156 -51 386 3 403 94 9 45 -25 99 -91 143 -169 112 -458 168
-661 127z"/>
<path d="M3360 5918 c-19 -5 -145 -13 -280 -16 -296 -8 -295 -8 -305 -104 -3
-35 -2 -655 4 -1378 6 -723 11 -1601 11 -1950 0 -543 2 -639 15 -657 33 -47
219 -68 1055 -114 191 -11 308 -9 680 12 426 23 1056 101 1090 134 22 23 23
137 11 930 -15 920 -22 1155 -33 1155 -6 0 -7 -246 -3 -652 7 -781 -4 -1361
-26 -1383 -11 -11 -57 -18 -174 -25 -211 -14 -352 -36 -388 -61 -78 -56 -765
-105 -1136 -81 -102 7 -217 19 -254 27 -37 8 -145 22 -240 31 -184 16 -417 55
-473 79 -39 16 -52 39 -34 60 15 17 8 166 -17 377 -13 112 -14 151 -4 207 12
75 15 348 4 377 -6 16 -7 16 -13 -2 -4 -10 -10 49 -14 131 -30 691 -32 799
-42 1895 -7 705 -3 910 17 910 5 0 9 -11 9 -25 0 -14 3 -25 6 -25 4 0 24 18
45 40 l39 40 177 1 c98 0 187 2 198 5 11 2 83 7 160 10 137 6 141 6 188 -19
55 -30 152 -46 170 -28 9 9 8 14 -3 21 -12 8 -12 12 -2 18 18 12 877 23 905
13 l22 -9 -25 -6 c-14 -3 -97 -15 -185 -26 -88 -12 -162 -24 -165 -27 -9 -10
384 5 430 17 66 16 70 18 64 34 -8 20 -58 36 -116 36 -27 0 -57 4 -66 9 -11 6
-187 6 -442 0 -234 -5 -481 -10 -550 -11 -121 -1 -214 12 -234 32 -12 12 -29
11 -76 -2z"/>
<path d="M5003 5853 c9 -2 25 -2 35 0 9 3 1 5 -18 5 -19 0 -27 -2 -17 -5z"/>
<path d="M5566 5815 c-3 -19 -9 -51 -12 -70 -7 -39 -19 -45 -29 -15 -3 11 -11
20 -16 20 -18 0 -20 -26 -4 -63 8 -20 15 -59 15 -86 0 -32 5 -53 14 -58 26
-15 29 -62 58 -1043 10 -339 15 -428 19 -350 7 120 1 1593 -7 1658 -6 52 -29
56 -38 7z"/>
<path d="M2940 5750 c-12 -8 -9 -10 13 -10 16 0 26 4 22 10 -8 12 -16 12 -35
0z"/>
<path d="M3915 5711 c11 -4 36 -14 55 -23 19 -9 71 -19 115 -23 53 -5 73 -10
60 -15 -72 -27 312 -22 495 6 163 25 173 32 72 53 -58 12 -831 14 -797 2z"/>
<path d="M5278 5504 c-13 -13 -14 -23 -6 -53 10 -36 34 -71 49 -71 14 0 31 80
24 111 -8 33 -40 40 -67 13z"/>
<path d="M2876 5193 c-16 -54 -35 -199 -30 -236 3 -23 1 -114 -5 -203 -11
-161 -6 -271 11 -241 10 19 27 219 29 360 1 60 8 134 17 165 10 40 13 74 8
115 -7 57 -20 73 -30 40z"/>
<path d="M12930 4683 c-75 -39 -89 -87 -119 -408 -55 -586 -56 -603 -56 -1330
0 -617 2 -702 18 -805 36 -225 56 -277 129 -330 57 -41 136 -63 238 -64 106
-1 153 18 171 71 18 54 2 231 -42 463 -19 98 -27 239 -15 259 3 4 19 89 36
187 17 98 51 258 75 354 68 272 180 580 205 565 5 -3 10 -33 10 -66 0 -116 84
-773 146 -1143 41 -243 93 -486 114 -527 39 -75 127 -117 261 -126 159 -10
229 16 229 88 0 38 -23 120 -60 215 l-28 71 48 234 c143 696 308 1204 518
1591 49 92 67 116 78 105 3 -2 -5 -110 -18 -238 -19 -196 -23 -293 -22 -599 0
-497 17 -639 140 -1152 30 -125 54 -229 54 -232 0 -3 16 -24 36 -46 50 -55
123 -81 251 -87 156 -9 223 26 223 114 0 39 -41 201 -95 378 -49 162 -85 323
-111 505 -33 236 -29 1018 7 1335 38 331 -9 507 -156 580 -55 28 -68 30 -165
30 -98 0 -110 -2 -174 -33 -86 -40 -189 -123 -258 -205 -169 -203 -348 -560
-483 -965 -35 -108 -50 -141 -59 -132 -8 8 -11 126 -11 413 0 449 -2 465 -70
544 -41 48 -84 70 -165 85 -176 31 -373 -83 -517 -299 -31 -47 -59 -81 -64
-76 -5 5 -4 46 2 93 7 47 12 157 13 245 1 157 1 161 -26 206 -64 109 -206 174
-288 132z"/>
<path d="M11050 4543 c-62 -32 -68 -63 -105 -563 -47 -623 -55 -764 -61 -1105
-12 -562 31 -796 173 -939 60 -61 112 -80 218 -81 80 0 97 3 155 31 143 68
266 191 396 396 39 62 76 114 82 116 6 2 14 -14 17 -35 61 -359 84 -417 193
-476 86 -47 262 -58 334 -21 57 29 74 94 43 171 -24 62 -82 326 -109 503 -54
351 -71 565 -81 1035 -6 271 -5 297 15 400 27 135 29 192 7 242 -9 21 -21 63
-27 94 -27 140 -137 229 -281 229 -81 0 -115 -30 -130 -115 -6 -33 -15 -73
-20 -90 -5 -16 -14 -82 -20 -145 -45 -529 -160 -1109 -289 -1460 -60 -162
-184 -379 -205 -358 -38 37 -28 908 15 1433 6 66 13 219 17 340 7 247 6 248
-63 319 -73 75 -206 114 -274 79z"/>
<path d="M16320 4549 c-70 -14 -159 -63 -227 -124 -240 -217 -385 -733 -370
-1320 18 -679 221 -1111 576 -1221 71 -22 191 -29 262 -15 82 17 153 49 245
112 212 147 353 425 290 572 -39 90 -177 186 -250 173 -62 -12 -129 -113 -212
-321 -55 -139 -140 -183 -219 -114 -44 39 -104 162 -140 284 -26 93 -75 339
-75 378 1 16 18 32 68 62 101 60 292 255 381 389 208 313 280 587 209 806 -78
246 -300 385 -538 339z m113 -460 c26 -140 -37 -338 -167 -521 -48 -69 -70
-76 -61 -20 47 288 106 477 176 566 28 36 42 29 52 -25z"/>
<path d="M2860 3652 c0 -230 7 -301 30 -287 23 14 0 498 -24 523 -3 3 -6 -103
-6 -236z"/>
<path d="M5537 2895 c-12 -437 -13 -816 -3 -822 5 -4 17 3 27 15 14 19 17 47
18 199 1 98 -4 234 -11 303 -7 69 -11 204 -10 300 1 96 -1 198 -6 225 -6 36
-10 -24 -15 -220z"/>
<path d="M4245 2747 c-85 -10 -237 -11 -270 -1 -16 5 -17 4 -8 -6 27 -28 388
-21 490 10 39 12 -110 10 -212 -3z"/>
<path d="M2937 2165 c-11 -76 3 -192 25 -211 17 -16 19 -16 31 0 11 15 31 19
96 22 71 4 92 9 159 43 42 22 86 46 97 54 19 15 19 15 -7 28 -33 15 -156 0
-258 -31 -35 -11 -67 -16 -71 -12 -3 4 -11 34 -18 66 -18 94 -44 114 -54 41z"/>
<path d="M3653 2165 c-34 -15 -41 -29 -21 -41 7 -4 96 -8 198 -9 212 -1 274
-14 311 -66 11 -16 35 -36 52 -43 31 -12 28 -13 -53 -18 -47 -3 -140 -3 -207
1 -124 8 -266 2 -279 -12 -15 -14 16 -30 72 -38 181 -24 680 -36 700 -17 11
12 -25 46 -57 53 -29 6 -38 20 -19 27 17 5 -1 45 -26 58 -30 17 -30 27 -1 36
46 15 -42 35 -192 44 -88 5 -164 15 -190 24 -57 21 -242 21 -288 1z m614 -171
c-3 -3 -12 -4 -19 -1 -8 3 -5 6 6 6 11 1 17 -2 13 -5z"/>
</g>
</svg>
